<svg width="89" height="89" viewBox="0 0 89 89" fill="none" xmlns="http://www.w3.org/2000/svg">
<path d="M44.5 89C69.0767 89 89 69.0767 89 44.5C89 19.9233 69.0767 0 44.5 0C19.9233 0 0 19.9233 0 44.5C0 69.0767 19.9233 89 44.5 89Z" fill="#64FF00"/>
<path d="M13.9778 37.6666C15.6223 36.8605 17.2992 36.28 19.0082 35.9253C20.7495 35.5384 22.6843 35.3449 24.8126 35.3449C26.8764 35.3449 28.5855 35.5061 29.9398 35.8286C31.2942 36.1511 32.3744 36.6186 33.1806 37.2313C33.9868 37.844 34.5511 38.5696 34.8736 39.408C35.196 40.2464 35.3573 41.1977 35.3573 42.2618C35.3573 42.8745 35.3089 43.5355 35.2121 44.245C35.1476 44.9544 35.067 45.5509 34.9703 46.0346L32.6969 56.676H24.9094L24.0387 53.5804H23.7485C22.7166 54.709 21.5073 55.5796 20.1207 56.1923C18.7664 56.7728 17.412 57.063 16.0577 57.063C15.2837 57.063 14.5259 56.9501 13.7843 56.7244C13.0426 56.4987 12.3815 56.1601 11.8011 55.7086C11.2207 55.2249 10.7531 54.6284 10.3984 53.9189C10.0437 53.1773 9.86631 52.2905 9.86631 51.2586C9.86631 49.5818 10.3178 48.2597 11.2207 47.2923C12.1558 46.2926 13.3651 45.5509 14.8484 45.0672C16.364 44.5513 18.0569 44.2288 19.9273 44.0998C21.8298 43.9709 23.7324 43.9064 25.6349 43.9064C25.6994 43.5839 25.78 43.1324 25.8767 42.552C25.9735 41.9393 26.0219 41.4073 26.0219 40.9558C26.0219 40.3754 25.8606 39.8433 25.5382 39.3596C25.2479 38.8437 24.6191 38.5857 23.6517 38.5857C22.5231 38.5857 21.6847 38.9243 21.1365 39.6014C20.6206 40.2464 20.282 41.0364 20.1207 41.9716H13.0587L13.9778 37.6666ZM25.1028 46.1798H24.2322C23.297 46.1798 22.4909 46.3087 21.8137 46.5667C21.1687 46.7924 20.6367 47.0988 20.2175 47.4857C19.8305 47.8727 19.5403 48.308 19.3468 48.7917C19.1533 49.2754 19.0566 49.7591 19.0566 50.2428C19.0566 51.0167 19.2501 51.5972 19.637 51.9841C20.0562 52.3711 20.5399 52.5646 21.0881 52.5646C21.7653 52.5646 22.4264 52.3227 23.0713 51.839C23.7485 51.3553 24.1677 50.7104 24.3289 49.9042L25.1028 46.1798ZM46.5674 56.676H36.6999L43.5684 24.1714H53.4843L46.5674 56.676ZM71.0894 35.877H78.9253L74.959 54.6929C74.6688 56.144 74.1851 57.4822 73.5079 58.7076C72.8307 59.9329 71.8794 60.9971 70.6541 61.9C69.4609 62.8029 67.9453 63.5123 66.1073 64.0283C64.3015 64.5442 62.0926 64.8022 59.4806 64.8022C58.9969 64.8022 58.4165 64.786 57.7393 64.7538C57.0621 64.7538 56.3688 64.7377 55.6594 64.7054C54.95 64.7054 54.2728 64.6893 53.6279 64.6571C52.9829 64.6248 52.467 64.5926 52.08 64.5603L52.999 61.0777C54.0309 61.2389 55.0789 61.3195 56.1431 61.3195C57.2395 61.3518 58.1746 61.3679 58.9485 61.3679C59.9159 61.3679 60.7221 61.2712 61.367 61.0777C62.0442 60.9165 62.5924 60.6424 63.0116 60.2554C63.4631 59.8684 63.8178 59.3525 64.0758 58.7076C64.366 58.0626 64.5917 57.2726 64.7529 56.3374L65.3334 53.1934H64.9948C64.8013 53.4836 64.5111 53.8383 64.1241 54.2575C63.7694 54.6445 63.3018 55.0314 62.7214 55.4184C62.141 55.7731 61.4477 56.0795 60.6415 56.3374C59.8676 56.5632 58.9808 56.676 57.9811 56.676C56.8525 56.676 55.8851 56.5148 55.0789 56.1923C54.305 55.8376 53.6762 55.37 53.1925 54.7896C52.7088 54.1769 52.3541 53.4675 52.1284 52.6613C51.9027 51.8229 51.7898 50.92 51.7898 49.9526C51.7898 49.5334 51.822 48.8885 51.8865 48.0178C51.951 47.1472 52.0961 46.1636 52.3219 45.0672C52.5798 43.9709 52.9345 42.8584 53.386 41.7297C53.8697 40.5688 54.4985 39.5208 55.2724 38.5857C56.0786 37.6505 57.0621 36.8766 58.223 36.2639C59.4161 35.6512 60.8511 35.3449 62.5279 35.3449C63.0439 35.3449 63.6082 35.3933 64.2209 35.49C64.8335 35.5867 65.4301 35.7641 66.0105 36.0221C66.591 36.28 67.1069 36.6509 67.5584 37.1346C68.0098 37.6183 68.3646 38.2471 68.6225 39.021H68.9127L71.0894 35.877ZM65.672 40.0851C64.898 40.0851 64.2531 40.5044 63.7372 41.3428C63.2212 42.1489 62.802 43.1002 62.4795 44.1966C62.1571 45.293 61.9152 46.3894 61.754 47.4857C61.625 48.5499 61.5605 49.3399 61.5605 49.8559C61.5605 50.5008 61.6573 51.049 61.8507 51.5004C62.0765 51.9197 62.4634 52.1293 63.0116 52.1293C63.3341 52.1293 63.6404 52.0486 63.9306 51.8874C64.2531 51.7262 64.5433 51.5488 64.8013 51.3553C65.0915 51.1296 65.3334 50.9039 65.5269 50.6782C65.7526 50.4524 65.9138 50.2751 66.0105 50.1461L67.8002 41.6814C67.5423 41.3266 67.2359 40.9719 66.8812 40.6172C66.5587 40.2625 66.1557 40.0851 65.672 40.0851Z" fill="#020202"/>
<path d="M36.3913 22.9276C36.5574 23.9302 36.5708 24.9756 36.4023 26.0344C35.5618 31.3176 30.5974 34.9192 25.3142 34.0786C20.0309 33.2381 16.4294 28.2737 17.2699 22.9905C17.4383 21.9318 17.7746 20.9418 18.2436 20.0404C17.8033 24.8299 21.1487 29.2044 25.9677 29.9711C30.7866 30.7378 35.3234 27.6172 36.3913 22.9276Z" fill="#020202"/>
<path d="M30.6807 23.8605C30.7986 24.5714 30.8076 25.3129 30.6881 26.0638C30.0923 29.8093 26.5728 32.3626 22.8273 31.7667C19.0818 31.1708 16.5285 27.6514 17.1244 23.9058C17.2438 23.1551 17.4816 22.4526 17.8142 21.8134C17.5019 25.2091 19.8741 28.3106 23.2907 28.8541C26.7071 29.3976 29.9239 27.1853 30.6807 23.8605Z" fill="#020202"/>
</svg>
