<svg width="517" height="96" viewBox="0 0 517 96" fill="none" xmlns="http://www.w3.org/2000/svg">
<path d="M48 96C74.5097 96 96 74.5097 96 48C96 21.4903 74.5097 0 48 0C21.4903 0 0 21.4903 0 48C0 74.5097 21.4903 96 48 96Z" fill="#64FF00"/>
<path d="M15.0771 40.5617C16.851 39.6921 18.6597 39.066 20.5032 38.6834C22.3815 38.266 24.4685 38.0573 26.7641 38.0573C28.9902 38.0573 30.8337 38.2312 32.2946 38.579C33.7555 38.9269 34.9207 39.4312 35.7903 40.0921C36.6599 40.753 37.2686 41.5356 37.6164 42.4399C37.9642 43.3443 38.1381 44.3704 38.1381 45.5182C38.1381 46.1791 38.086 46.8921 37.9816 47.6574C37.9121 48.4226 37.8251 49.0661 37.7207 49.5878L35.2686 61.0662H26.8685L25.9294 57.727H25.6163C24.5033 58.9444 23.1989 59.8835 21.7032 60.5444C20.2424 61.1705 18.7815 61.4836 17.3206 61.4836C16.4858 61.4836 15.6684 61.3618 14.8684 61.1183C14.0684 60.8749 13.3554 60.5096 12.7293 60.0227C12.1032 59.5009 11.5988 58.8575 11.2162 58.0922C10.8336 57.2922 10.6423 56.3357 10.6423 55.2226C10.6423 53.4139 11.1293 51.9878 12.1032 50.9444C13.1119 49.8661 14.4162 49.0661 16.0162 48.5443C17.651 47.9878 19.4771 47.64 21.4945 47.5008C23.5467 47.3617 25.5989 47.2922 27.6511 47.2922C27.7207 46.9443 27.8076 46.4574 27.912 45.8313C28.0163 45.1704 28.0685 44.5965 28.0685 44.1095C28.0685 43.4834 27.8946 42.9095 27.5468 42.3878C27.2337 41.8312 26.5554 41.553 25.512 41.553C24.2946 41.553 23.3902 41.9182 22.7989 42.6486C22.2424 43.3443 21.8772 44.1965 21.7032 45.2052H14.0858L15.0771 40.5617ZM27.0772 49.7443H26.1381C25.1294 49.7443 24.2598 49.8835 23.5293 50.1617C22.8337 50.4052 22.2598 50.7357 21.8076 51.153C21.3902 51.5704 21.0771 52.04 20.8685 52.5618C20.6598 53.0835 20.5554 53.6052 20.5554 54.127C20.5554 54.9618 20.7641 55.5879 21.1815 56.0053C21.6337 56.4227 22.1554 56.6313 22.7467 56.6313C23.4772 56.6313 24.1902 56.3705 24.8859 55.8487C25.6163 55.327 26.0685 54.6313 26.2424 53.7618L27.0772 49.7443ZM50.2299 61.0662H39.5864L46.9951 26.005H57.6909L50.2299 61.0662ZM76.6807 38.6312H85.1329L80.8546 58.927C80.5416 60.4922 80.0198 61.9357 79.2894 63.2575C78.5589 64.5792 77.5329 65.7271 76.2111 66.701C74.9241 67.6749 73.2893 68.4401 71.3067 68.9967C69.3589 69.5532 66.9763 69.8314 64.1588 69.8314C63.6371 69.8314 63.011 69.8141 62.2806 69.7793C61.5501 69.7793 60.8023 69.7619 60.0371 69.7271C59.2719 69.7271 58.5414 69.7097 57.8458 69.6749C57.1501 69.6401 56.5936 69.6054 56.1762 69.5706L57.1675 65.814C58.2805 65.9879 59.411 66.0749 60.5588 66.0749C61.7414 66.1097 62.7501 66.1271 63.5849 66.1271C64.6284 66.1271 65.498 66.0227 66.1936 65.814C66.9241 65.6401 67.5154 65.3445 67.9676 64.9271C68.4545 64.5097 68.8371 63.9531 69.1154 63.2575C69.4284 62.5618 69.6719 61.7096 69.8458 60.7009L70.4719 57.3096H70.1067C69.898 57.6227 69.585 58.0053 69.1676 58.4574C68.785 58.8748 68.2806 59.2922 67.6545 59.7096C67.0284 60.0922 66.2806 60.4227 65.411 60.7009C64.5762 60.9444 63.6197 61.0662 62.5414 61.0662C61.324 61.0662 60.2806 60.8922 59.411 60.5444C58.5762 60.1618 57.8979 59.6575 57.3762 59.0314C56.8544 58.3705 56.4718 57.6053 56.2284 56.7357C55.9849 55.8313 55.8631 54.8574 55.8631 53.8139C55.8631 53.3618 55.8979 52.6661 55.9675 51.727C56.037 50.7878 56.1936 49.7269 56.437 48.5443C56.7153 47.3617 57.0979 46.1617 57.5849 44.9443C58.1066 43.6921 58.7849 42.5617 59.6197 41.553C60.4893 40.5443 61.5501 39.7095 62.8023 39.0486C64.0893 38.3877 65.6371 38.0573 67.4458 38.0573C68.0023 38.0573 68.611 38.1095 69.2719 38.2138C69.9328 38.3182 70.5763 38.5095 71.2024 38.7877C71.8285 39.066 72.385 39.466 72.8719 39.9877C73.3589 40.5095 73.7415 41.1878 74.0198 42.0225H74.3328L76.6807 38.6312ZM70.8372 43.1704C70.0024 43.1704 69.3067 43.6226 68.7502 44.5269C68.1937 45.3965 67.7415 46.4226 67.3936 47.6052C67.0458 48.7878 66.7849 49.9704 66.611 51.153C66.4719 52.3009 66.4023 53.1531 66.4023 53.7096C66.4023 54.4052 66.5067 54.9966 66.7154 55.4835C66.9589 55.9357 67.3763 56.1618 67.9676 56.1618C68.3154 56.1618 68.6458 56.0748 68.9589 55.9009C69.3067 55.727 69.6198 55.5357 69.898 55.327C70.2111 55.0835 70.4719 54.84 70.6806 54.5966C70.9241 54.3531 71.098 54.1618 71.2024 54.0226L73.1328 44.8921C72.8546 44.5095 72.5241 44.1269 72.1415 43.7443C71.7937 43.3617 71.3589 43.1704 70.8372 43.1704Z" fill="#020202"/>
<path d="M39.2535 24.7308C39.4327 25.8122 39.4469 26.9398 39.2652 28.0819C38.3585 33.7807 33.0039 37.6654 27.3051 36.7587C21.6063 35.8521 17.7216 30.4974 18.6283 24.7986C18.8099 23.6567 19.1725 22.5888 19.6784 21.6165C19.2035 26.7827 22.812 31.5011 28.01 32.3281C33.208 33.1551 38.1016 29.7892 39.2535 24.7308Z" fill="#020202"/>
<path d="M33.0932 25.7369C33.2204 26.5038 33.2306 27.3035 33.1017 28.1135C32.459 32.1536 28.6628 34.9076 24.6227 34.2649C20.5826 33.6221 17.8285 29.8259 18.4713 25.7858C18.6002 24.976 18.8571 24.2186 19.216 23.5291C18.8791 27.1917 21.4372 30.5374 25.1224 31.1237C28.8076 31.7099 32.2768 29.3232 33.0932 25.7369Z" fill="#020202"/>
<path d="M132.017 74H118.415L144.776 21.6364H161.625L170.599 74H156.997L151.244 34.8295H150.835L132.017 74ZM133.653 53.392H162.085L160.449 63.0057H132.017L133.653 53.392ZM197.433 21.6364L188.74 74H176.237L184.93 21.6364H197.433ZM212.55 89.5455C208.8 89.5455 205.681 89.0256 203.192 87.9858C200.704 86.946 198.846 85.5227 197.619 83.7159C196.391 81.9091 195.803 79.8636 195.854 77.5795L207.82 76.9148C207.923 77.733 208.221 78.4403 208.715 79.0369C209.21 79.6335 209.917 80.0852 210.837 80.392C211.758 80.7159 212.9 80.8778 214.263 80.8778C216.36 80.8778 218.184 80.3665 219.735 79.3438C221.286 78.321 222.241 76.5568 222.599 74.0511L223.749 67.1477H223.315C222.633 68.358 221.712 69.4403 220.553 70.3949C219.394 71.3494 218.022 72.0994 216.437 72.6449C214.852 73.1903 213.096 73.4631 211.17 73.4631C208.289 73.4631 205.775 72.7983 203.627 71.4688C201.479 70.1222 199.928 68.0426 198.974 65.2301C198.019 62.4006 197.908 58.7614 198.641 54.3125C199.408 49.7273 200.772 45.9517 202.732 42.9858C204.692 40.0028 206.977 37.7955 209.585 36.3636C212.21 34.9318 214.894 34.2159 217.638 34.2159C219.701 34.2159 221.406 34.5739 222.752 35.2898C224.099 35.9886 225.156 36.892 225.923 38C226.69 39.108 227.235 40.2585 227.559 41.4517H227.917L229.016 34.7273H241.468L234.923 74.1534C234.394 77.4943 233.107 80.3068 231.062 82.5909C229.016 84.875 226.4 86.6051 223.212 87.7812C220.025 88.9574 216.471 89.5455 212.55 89.5455ZM216.948 64.3608C218.465 64.3608 219.837 63.9602 221.065 63.1591C222.292 62.358 223.323 61.2074 224.158 59.7074C224.994 58.2074 225.582 56.4091 225.923 54.3125C226.263 52.1818 226.263 50.3494 225.923 48.8153C225.599 47.2642 224.968 46.071 224.031 45.2358C223.093 44.4006 221.857 43.983 220.323 43.983C218.772 43.983 217.391 44.4091 216.181 45.2614C214.988 46.1136 213.982 47.3153 213.164 48.8665C212.363 50.4006 211.8 52.2159 211.477 54.3125C211.136 56.4091 211.11 58.2074 211.4 59.7074C211.707 61.2074 212.32 62.358 213.241 63.1591C214.178 63.9602 215.414 64.3608 216.948 64.3608ZM261.149 74.7415C257.041 74.7415 253.632 73.9318 250.922 72.3125C248.229 70.6761 246.337 68.3494 245.246 65.3324C244.155 62.2983 243.959 58.6932 244.658 54.517C245.339 50.4602 246.729 46.9148 248.825 43.8807C250.939 40.8295 253.598 38.4602 256.803 36.7727C260.007 35.0682 263.578 34.2159 267.516 34.2159C270.311 34.2159 272.791 34.6506 274.956 35.5199C277.121 36.3892 278.911 37.6847 280.325 39.4062C281.74 41.1108 282.703 43.2074 283.214 45.696C283.726 48.1847 283.709 51.0398 283.163 54.2614L282.678 57.3807H248.57L249.72 50.1193H272.22C272.425 48.7898 272.314 47.6051 271.888 46.5653C271.462 45.5256 270.771 44.7159 269.817 44.1364C268.879 43.5398 267.729 43.2415 266.365 43.2415C264.984 43.2415 263.689 43.5653 262.479 44.2131C261.286 44.8437 260.271 45.696 259.436 46.7699C258.601 47.8437 258.055 49.054 257.8 50.4006L256.445 57.8409C256.172 59.4943 256.249 60.9091 256.675 62.0852C257.101 63.2614 257.834 64.1648 258.874 64.7955C259.913 65.4091 261.251 65.7159 262.888 65.7159C263.979 65.7159 265.001 65.571 265.956 65.2812C266.911 64.9744 267.763 64.5227 268.513 63.9261C269.28 63.3125 269.902 62.571 270.379 61.7017L281.783 62.0341C280.862 64.608 279.439 66.8494 277.513 68.7585C275.587 70.6506 273.234 72.125 270.456 73.1818C267.695 74.2216 264.592 74.7415 261.149 74.7415ZM302.589 51.6023L298.856 74H286.353L292.898 34.7273H304.788L303.612 41.9375H304.046C305.273 39.5341 307.055 37.6506 309.39 36.2869C311.725 34.9062 314.35 34.2159 317.265 34.2159C320.009 34.2159 322.302 34.8295 324.143 36.0568C325.984 37.2841 327.288 39.0057 328.055 41.2216C328.822 43.4205 328.95 46.0028 328.438 48.9688L324.245 74H311.742L315.501 51.4233C315.876 49.2585 315.612 47.5625 314.708 46.3352C313.822 45.0909 312.373 44.4688 310.362 44.4688C309.049 44.4688 307.847 44.7585 306.756 45.3381C305.683 45.9006 304.779 46.7102 304.046 47.767C303.33 48.8239 302.844 50.1023 302.589 51.6023Z" fill="white"/>
<path d="M366.5 74H350.341V21.6364H367.216C372.295 21.6364 376.642 22.6847 380.256 24.7812C383.869 26.8608 386.639 29.8523 388.565 33.7557C390.491 37.642 391.455 42.2955 391.455 47.7159C391.455 53.1705 390.483 57.8665 388.54 61.804C386.597 65.7244 383.767 68.7415 380.051 70.8551C376.335 72.9517 371.818 74 366.5 74ZM356.682 68.375H366.091C370.42 68.375 374.009 67.5398 376.855 65.8693C379.702 64.1989 381.824 61.821 383.222 58.7358C384.619 55.6506 385.318 51.9773 385.318 47.7159C385.318 43.4886 384.628 39.8494 383.247 36.7983C381.866 33.7301 379.804 31.3778 377.06 29.7415C374.315 28.0881 370.898 27.2614 366.807 27.2614H356.682V68.375ZM417.227 74.8182C413.682 74.8182 410.571 73.9744 407.895 72.2869C405.236 70.5994 403.156 68.2386 401.656 65.2045C400.173 62.1705 399.432 58.625 399.432 54.5682C399.432 50.4773 400.173 46.9062 401.656 43.8551C403.156 40.804 405.236 38.4347 407.895 36.7472C410.571 35.0597 413.682 34.2159 417.227 34.2159C420.773 34.2159 423.875 35.0597 426.534 36.7472C429.21 38.4347 431.29 40.804 432.773 43.8551C434.273 46.9062 435.023 50.4773 435.023 54.5682C435.023 58.625 434.273 62.1705 432.773 65.2045C431.29 68.2386 429.21 70.5994 426.534 72.2869C423.875 73.9744 420.773 74.8182 417.227 74.8182ZM417.227 69.3977C419.92 69.3977 422.136 68.7074 423.875 67.3267C425.614 65.946 426.901 64.1307 427.736 61.8807C428.571 59.6307 428.989 57.1932 428.989 54.5682C428.989 51.9432 428.571 49.4972 427.736 47.2301C426.901 44.9631 425.614 43.1307 423.875 41.733C422.136 40.3352 419.92 39.6364 417.227 39.6364C414.534 39.6364 412.318 40.3352 410.58 41.733C408.841 43.1307 407.554 44.9631 406.719 47.2301C405.884 49.4972 405.466 51.9432 405.466 54.5682C405.466 57.1932 405.884 59.6307 406.719 61.8807C407.554 64.1307 408.841 65.946 410.58 67.3267C412.318 68.7074 414.534 69.3977 417.227 69.3977ZM460.188 74.8182C456.506 74.8182 453.336 73.9489 450.677 72.2102C448.018 70.4716 445.972 68.0767 444.54 65.0256C443.109 61.9744 442.393 58.4886 442.393 54.5682C442.393 50.5795 443.126 47.0597 444.592 44.0085C446.075 40.9403 448.137 38.5455 450.779 36.8239C453.438 35.0852 456.54 34.2159 460.086 34.2159C462.847 34.2159 465.336 34.7273 467.552 35.75C469.768 36.7727 471.583 38.2045 472.998 40.0455C474.413 41.8864 475.29 44.0341 475.631 46.4886H469.597C469.137 44.6989 468.114 43.1136 466.529 41.733C464.961 40.3352 462.847 39.6364 460.188 39.6364C457.836 39.6364 455.773 40.25 454.001 41.4773C452.245 42.6875 450.873 44.4006 449.884 46.6165C448.913 48.8153 448.427 51.3977 448.427 54.3636C448.427 57.3977 448.904 60.0398 449.859 62.2898C450.83 64.5398 452.194 66.2869 453.95 67.5312C455.722 68.7756 457.802 69.3977 460.188 69.3977C461.756 69.3977 463.18 69.125 464.458 68.5795C465.737 68.0341 466.819 67.25 467.705 66.2273C468.592 65.2045 469.222 63.9773 469.597 62.5455H475.631C475.29 64.8636 474.447 66.9517 473.1 68.8097C471.771 70.6506 470.006 72.1165 467.808 73.2074C465.626 74.2812 463.086 74.8182 460.188 74.8182ZM512.271 43.5227L506.85 45.0568C506.509 44.1534 506.006 43.2756 505.342 42.4233C504.694 41.554 503.808 40.8381 502.683 40.2756C501.558 39.7131 500.117 39.4318 498.362 39.4318C495.958 39.4318 493.955 39.9858 492.353 41.0938C490.768 42.1847 489.975 43.5739 489.975 45.2614C489.975 46.7614 490.521 47.946 491.612 48.8153C492.702 49.6847 494.407 50.4091 496.725 50.9886L502.555 52.4205C506.066 53.2727 508.683 54.5767 510.404 56.3324C512.126 58.071 512.987 60.3125 512.987 63.0568C512.987 65.3068 512.339 67.3182 511.043 69.0909C509.765 70.8636 507.975 72.2614 505.674 73.2841C503.373 74.3068 500.697 74.8182 497.646 74.8182C493.64 74.8182 490.325 73.9489 487.7 72.2102C485.075 70.4716 483.413 67.9318 482.714 64.5909L488.441 63.1591C488.987 65.2727 490.018 66.858 491.535 67.9148C493.069 68.9716 495.072 69.5 497.543 69.5C500.356 69.5 502.589 68.9034 504.242 67.7102C505.913 66.5 506.748 65.0511 506.748 63.3636C506.748 62 506.271 60.858 505.316 59.9375C504.362 59 502.896 58.3011 500.918 57.8409L494.373 56.3068C490.776 55.4545 488.134 54.1335 486.447 52.3438C484.776 50.5369 483.941 48.2784 483.941 45.5682C483.941 43.3523 484.563 41.392 485.808 39.6875C487.069 37.983 488.782 36.6449 490.947 35.6733C493.129 34.7017 495.6 34.2159 498.362 34.2159C502.248 34.2159 505.299 35.0682 507.515 36.7727C509.748 38.4773 511.333 40.7273 512.271 43.5227Z" fill="white"/>
</svg>
