<svg width="546" height="254" viewBox="0 0 546 254" fill="none" xmlns="http://www.w3.org/2000/svg">
<path d="M300 128H393C415.091 128 433 145.909 433 168V222" stroke="#CED2DB" stroke-width="2"/>
<path d="M234 127H143C120.909 127 103 109.091 103 87V34" stroke="#CED2DB" stroke-width="2"/>
<path d="M234 127H143C120.909 127 103 144.909 103 167V218" stroke="#CED2DB" stroke-width="2"/>
<rect x="25" y="22" width="176" height="48" rx="16" fill="white"/>
<rect x="25.5" y="22.5" width="175" height="47" rx="15.5" stroke="#5B616E" stroke-opacity="0.2"/>
<path d="M47.9888 40.9951H57.9888V42.9951H47.9888V40.9951Z" fill="#BC8300"/>
<path d="M57.9888 44.9951H47.9888V46.9951H57.9888V44.9951Z" fill="#BC8300"/>
<path d="M52.9888 48.9951H47.9888V50.9951H52.9888V48.9951Z" fill="#BC8300"/>
<path d="M43.9888 35.9951V55.9951H61.9888V35.9951H43.9888ZM45.9888 53.9951V37.9951H59.9888V53.9951H45.9888Z" fill="#BC8300"/>
<path d="M78.668 42.306H75.364V41.144H83.302V42.306H79.998V51H78.668V42.306ZM87.064 51.196C84.768 51.196 83.564 49.474 83.564 47.276C83.564 45.064 84.838 43.356 87.022 43.356C89.22 43.356 90.396 44.994 90.396 47.108V47.556H84.852V47.612C84.852 49.194 85.748 50.188 87.092 50.188C88.24 50.188 88.856 49.586 88.954 49.012H90.256C90.004 50.3 88.842 51.196 87.064 51.196ZM87.022 44.378C85.846 44.378 84.964 45.218 84.866 46.66H89.094C89.052 45.19 88.254 44.378 87.022 44.378ZM91.2354 51L93.9794 47.206L91.3754 43.552H92.8734L94.7354 46.366H94.7914L96.6674 43.552H98.1234L95.5054 47.164L98.2634 51H96.7654L94.7494 48.004H94.7074L92.6914 51H91.2354ZM98.9906 43.552H100.643V41.592H101.931V43.552H104.297V44.63H101.931V49.18C101.931 49.698 102.141 49.922 102.659 49.922H104.311V51H102.421C101.189 51 100.643 50.426 100.643 49.278V44.63H98.9906V43.552ZM109.327 51.672H110.629C110.727 52.246 111.259 52.848 112.505 52.848C114.003 52.848 114.689 52.008 114.689 50.524V49.236H114.619C114.241 50.174 113.499 50.762 112.253 50.762C110.265 50.762 109.103 49.138 109.103 47.038C109.103 44.98 110.223 43.356 112.253 43.356C113.569 43.356 114.353 43.972 114.703 44.952H114.759V43.552H115.977V50.454C115.977 52.666 114.717 53.898 112.505 53.898C110.559 53.898 109.495 52.89 109.327 51.672ZM110.391 46.87V47.248C110.391 48.774 111.329 49.67 112.547 49.67C113.751 49.67 114.689 48.746 114.689 47.248V46.87C114.689 45.4 113.751 44.448 112.547 44.448C111.329 44.448 110.391 45.33 110.391 46.87ZM121.531 51.196C119.235 51.196 118.031 49.474 118.031 47.276C118.031 45.064 119.305 43.356 121.489 43.356C123.687 43.356 124.863 44.994 124.863 47.108V47.556H119.319V47.612C119.319 49.194 120.215 50.188 121.559 50.188C122.707 50.188 123.323 49.586 123.421 49.012H124.723C124.471 50.3 123.309 51.196 121.531 51.196ZM121.489 44.378C120.313 44.378 119.431 45.218 119.333 46.66H123.561C123.519 45.19 122.721 44.378 121.489 44.378ZM128.188 46.618V51H126.9V43.552H128.104V44.924H128.174C128.524 43.888 129.392 43.356 130.498 43.356C132.01 43.356 133.2 44.378 133.2 46.268V51H131.912V46.394C131.912 45.106 131.086 44.476 130.12 44.476C129.112 44.476 128.188 45.162 128.188 46.618ZM138.689 51.196C136.393 51.196 135.189 49.474 135.189 47.276C135.189 45.064 136.463 43.356 138.647 43.356C140.845 43.356 142.021 44.994 142.021 47.108V47.556H136.477V47.612C136.477 49.194 137.373 50.188 138.717 50.188C139.865 50.188 140.481 49.586 140.579 49.012H141.881C141.629 50.3 140.467 51.196 138.689 51.196ZM138.647 44.378C137.471 44.378 136.589 45.218 136.491 46.66H140.719C140.677 45.19 139.879 44.378 138.647 44.378ZM144.059 51V43.552H145.277V44.868H145.347C145.543 44.182 146.131 43.51 147.377 43.51H148.315V44.714H147.139C145.739 44.714 145.347 45.554 145.347 46.632V51H144.059ZM149.563 45.442C149.675 44.224 150.711 43.356 152.531 43.356C154.183 43.356 155.359 44.14 155.359 45.862V49.404C155.359 49.852 155.541 49.964 155.891 49.964H156.339V51H155.513C154.603 51 154.267 50.552 154.281 49.796V49.642H154.197C153.889 50.594 152.979 51.196 151.775 51.196C150.347 51.196 149.297 50.384 149.297 48.998C149.297 47.64 150.305 46.94 151.831 46.702L152.923 46.52C153.665 46.394 154.043 46.142 154.043 45.554C154.043 44.952 153.651 44.35 152.503 44.35C151.467 44.35 150.907 44.756 150.837 45.442H149.563ZM154.085 47.99V46.912C153.945 47.108 153.609 47.318 153.119 47.402L152.055 47.584C151.131 47.738 150.557 48.144 150.557 48.872V48.956C150.557 49.74 151.145 50.188 152.013 50.188C153.231 50.188 154.085 49.306 154.085 47.99ZM156.959 43.552H158.611V41.592H159.899V43.552H162.265V44.63H159.899V49.18C159.899 49.698 160.109 49.922 160.627 49.922H162.279V51H160.389C159.157 51 158.611 50.426 158.611 49.278V44.63H156.959V43.552ZM165.29 42.152H165.22C164.716 42.152 164.338 41.774 164.338 41.298C164.338 40.808 164.716 40.43 165.22 40.43H165.29C165.794 40.43 166.172 40.808 166.172 41.298C166.172 41.774 165.794 42.152 165.29 42.152ZM163.456 44.616V43.552H165.906V51H164.618V44.616H163.456ZM171.461 51.196C169.165 51.196 167.947 49.474 167.947 47.276C167.947 45.064 169.193 43.356 171.461 43.356C173.715 43.356 174.975 45.078 174.975 47.276C174.975 49.474 173.757 51.196 171.461 51.196ZM173.673 47.556V47.01C173.673 45.414 172.735 44.462 171.461 44.462C170.187 44.462 169.235 45.442 169.235 47.01V47.556C169.235 49.11 170.187 50.104 171.461 50.104C172.735 50.104 173.673 49.166 173.673 47.556ZM178.323 46.618V51H177.035V43.552H178.239V44.924H178.309C178.659 43.888 179.527 43.356 180.633 43.356C182.145 43.356 183.335 44.378 183.335 46.268V51H182.047V46.394C182.047 45.106 181.221 44.476 180.255 44.476C179.247 44.476 178.323 45.162 178.323 46.618Z" fill="#0A0B0D"/>
<rect x="25" y="190" width="171" height="48" rx="16" fill="white"/>
<rect x="25.5" y="190.5" width="170" height="47" rx="15.5" stroke="#5B616E" stroke-opacity="0.2"/>
<path d="M56.9888 211.995C58.0933 211.995 58.9888 211.1 58.9888 209.995C58.9888 208.891 58.0933 207.995 56.9888 207.995C55.8842 207.995 54.9888 208.891 54.9888 209.995C54.9888 211.1 55.8842 211.995 56.9888 211.995Z" fill="#B33AA2"/>
<path d="M42.9888 223.995H62.9888V203.995H42.9888V223.995ZM60.9888 205.995V220.995L50.9888 210.995L44.9888 216.995V205.995H60.9888ZM44.9888 221.995V219.824L50.9888 213.824L59.1603 221.995H44.9888Z" fill="#B33AA2"/>
<path d="M76.456 209.144H77.8V219H76.456V209.144ZM80.498 219V211.552H81.702V212.798H81.772C82.08 211.86 82.85 211.356 83.9 211.356C85.006 211.356 85.846 211.902 86.196 212.924H86.252C86.616 211.888 87.484 211.356 88.562 211.356C89.99 211.356 91.11 212.322 91.11 214.1V219H89.822V214.226C89.822 213.05 89.066 212.476 88.198 212.476C87.274 212.476 86.448 213.106 86.448 214.408V219H85.16V214.226C85.16 213.05 84.404 212.476 83.522 212.476C82.612 212.476 81.786 213.12 81.786 214.436V219H80.498ZM93.2896 213.442C93.4016 212.224 94.4376 211.356 96.2576 211.356C97.9096 211.356 99.0856 212.14 99.0856 213.862V217.404C99.0856 217.852 99.2676 217.964 99.6176 217.964H100.066V219H99.2396C98.3296 219 97.9936 218.552 98.0076 217.796V217.642H97.9236C97.6156 218.594 96.7056 219.196 95.5016 219.196C94.0736 219.196 93.0236 218.384 93.0236 216.998C93.0236 215.64 94.0316 214.94 95.5576 214.702L96.6496 214.52C97.3916 214.394 97.7696 214.142 97.7696 213.554C97.7696 212.952 97.3776 212.35 96.2296 212.35C95.1936 212.35 94.6336 212.756 94.5636 213.442H93.2896ZM97.8116 215.99V214.912C97.6716 215.108 97.3356 215.318 96.8456 215.402L95.7816 215.584C94.8576 215.738 94.2836 216.144 94.2836 216.872V216.956C94.2836 217.74 94.8716 218.188 95.7396 218.188C96.9576 218.188 97.8116 217.306 97.8116 215.99ZM101.466 219.672H102.768C102.866 220.246 103.398 220.848 104.644 220.848C106.142 220.848 106.828 220.008 106.828 218.524V217.236H106.758C106.38 218.174 105.638 218.762 104.392 218.762C102.404 218.762 101.242 217.138 101.242 215.038C101.242 212.98 102.362 211.356 104.392 211.356C105.708 211.356 106.492 211.972 106.842 212.952H106.898V211.552H108.116V218.454C108.116 220.666 106.856 221.898 104.644 221.898C102.698 221.898 101.634 220.89 101.466 219.672ZM102.53 214.87V215.248C102.53 216.774 103.468 217.67 104.686 217.67C105.89 217.67 106.828 216.746 106.828 215.248V214.87C106.828 213.4 105.89 212.448 104.686 212.448C103.468 212.448 102.53 213.33 102.53 214.87ZM113.669 219.196C111.373 219.196 110.169 217.474 110.169 215.276C110.169 213.064 111.443 211.356 113.627 211.356C115.825 211.356 117.001 212.994 117.001 215.108V215.556H111.457V215.612C111.457 217.194 112.353 218.188 113.697 218.188C114.845 218.188 115.461 217.586 115.559 217.012H116.861C116.609 218.3 115.447 219.196 113.669 219.196ZM113.627 212.378C112.451 212.378 111.569 213.218 111.471 214.66H115.699C115.657 213.19 114.859 212.378 113.627 212.378ZM123.215 215.01V215.556C123.215 217.124 124.139 218.104 125.399 218.104C126.505 218.104 127.093 217.488 127.261 216.718H128.521C128.269 218.216 127.177 219.196 125.413 219.196C123.131 219.196 121.927 217.502 121.927 215.276C121.927 213.036 123.173 211.356 125.413 211.356C127.177 211.356 128.297 212.336 128.521 213.806H127.247C127.093 213.078 126.519 212.462 125.399 212.462C124.139 212.462 123.215 213.428 123.215 215.01ZM130.51 219V211.552H131.728V212.868H131.798C131.994 212.182 132.582 211.51 133.828 211.51H134.766V212.714H133.59C132.19 212.714 131.798 213.554 131.798 214.632V219H130.51ZM139.236 219.196C136.94 219.196 135.736 217.474 135.736 215.276C135.736 213.064 137.01 211.356 139.194 211.356C141.392 211.356 142.568 212.994 142.568 215.108V215.556H137.024V215.612C137.024 217.194 137.92 218.188 139.264 218.188C140.412 218.188 141.028 217.586 141.126 217.012H142.428C142.176 218.3 141.014 219.196 139.236 219.196ZM139.194 212.378C138.018 212.378 137.136 213.218 137.038 214.66H141.266C141.224 213.19 140.426 212.378 139.194 212.378ZM144.409 213.442C144.521 212.224 145.557 211.356 147.377 211.356C149.029 211.356 150.205 212.14 150.205 213.862V217.404C150.205 217.852 150.387 217.964 150.737 217.964H151.185V219H150.359C149.449 219 149.113 218.552 149.127 217.796V217.642H149.043C148.735 218.594 147.825 219.196 146.621 219.196C145.193 219.196 144.143 218.384 144.143 216.998C144.143 215.64 145.151 214.94 146.677 214.702L147.769 214.52C148.511 214.394 148.889 214.142 148.889 213.554C148.889 212.952 148.497 212.35 147.349 212.35C146.313 212.35 145.753 212.756 145.683 213.442H144.409ZM148.931 215.99V214.912C148.791 215.108 148.455 215.318 147.965 215.402L146.901 215.584C145.977 215.738 145.403 216.144 145.403 216.872V216.956C145.403 217.74 145.991 218.188 146.859 218.188C148.077 218.188 148.931 217.306 148.931 215.99ZM151.805 211.552H153.457V209.592H154.745V211.552H157.111V212.63H154.745V217.18C154.745 217.698 154.955 217.922 155.473 217.922H157.125V219H155.235C154.003 219 153.457 218.426 153.457 217.278V212.63H151.805V211.552ZM160.135 210.152H160.065C159.561 210.152 159.183 209.774 159.183 209.298C159.183 208.808 159.561 208.43 160.065 208.43H160.135C160.639 208.43 161.017 208.808 161.017 209.298C161.017 209.774 160.639 210.152 160.135 210.152ZM158.301 212.616V211.552H160.751V219H159.463V212.616H158.301ZM166.306 219.196C164.01 219.196 162.792 217.474 162.792 215.276C162.792 213.064 164.038 211.356 166.306 211.356C168.56 211.356 169.82 213.078 169.82 215.276C169.82 217.474 168.602 219.196 166.306 219.196ZM168.518 215.556V215.01C168.518 213.414 167.58 212.462 166.306 212.462C165.032 212.462 164.08 213.442 164.08 215.01V215.556C164.08 217.11 165.032 218.104 166.306 218.104C167.58 218.104 168.518 217.166 168.518 215.556ZM173.169 214.618V219H171.881V211.552H173.085V212.924H173.155C173.505 211.888 174.373 211.356 175.479 211.356C176.991 211.356 178.181 212.378 178.181 214.268V219H176.893V214.394C176.893 213.106 176.067 212.476 175.101 212.476C174.093 212.476 173.169 213.162 173.169 214.618Z" fill="#0A0B0D"/>
<rect x="339" y="190" width="182" height="48" rx="16" fill="white"/>
<rect x="339.5" y="190.5" width="181" height="47" rx="15.5" stroke="#5B616E" stroke-opacity="0.2"/>
<path d="M359 222C358.45 222 357.979 221.804 357.588 221.413C357.196 221.021 357 220.55 357 220V208C357 207.45 357.196 206.979 357.588 206.588C357.979 206.196 358.45 206 359 206H375C375.55 206 376.021 206.196 376.413 206.588C376.804 206.979 377 207.45 377 208V220C377 220.55 376.804 221.021 376.413 221.413C376.021 221.804 375.55 222 375 222H359ZM359 220H375V210H359V220ZM362.5 219L361.1 217.6L363.675 215L361.075 212.4L362.5 211L366.5 215L362.5 219ZM367 219V217H373V219H367Z" fill="#5A30AD"/>
<path d="M394.334 218.034C395.832 218.034 396.672 217.166 396.91 216.088H398.31C397.932 217.95 396.476 219.196 394.362 219.196C391.394 219.196 389.868 216.872 389.868 214.072C389.868 211.286 391.394 208.934 394.362 208.934C396.476 208.934 397.904 210.152 398.282 211.93H396.854C396.602 210.838 395.762 210.096 394.334 210.096C392.626 210.096 391.226 211.412 391.226 213.764V214.366C391.226 216.718 392.626 218.034 394.334 218.034ZM403.375 219.196C401.079 219.196 399.861 217.474 399.861 215.276C399.861 213.064 401.107 211.356 403.375 211.356C405.629 211.356 406.889 213.078 406.889 215.276C406.889 217.474 405.671 219.196 403.375 219.196ZM405.587 215.556V215.01C405.587 213.414 404.649 212.462 403.375 212.462C402.101 212.462 401.149 213.442 401.149 215.01V215.556C401.149 217.11 402.101 218.104 403.375 218.104C404.649 218.104 405.587 217.166 405.587 215.556ZM415.375 219H414.157V217.474H414.087C413.723 218.51 412.911 219.196 411.609 219.196C409.537 219.196 408.417 217.488 408.417 215.276C408.417 213.064 409.565 211.356 411.609 211.356C412.841 211.356 413.611 211.986 414.017 212.98H414.087V208.5H415.375V219ZM409.705 215.556C409.705 217.166 410.643 218.104 411.889 218.104C413.149 218.104 414.087 217.124 414.087 215.556V215.01C414.087 213.428 413.149 212.462 411.889 212.462C410.643 212.462 409.705 213.4 409.705 215.01V215.556ZM421.011 219.196C418.715 219.196 417.511 217.474 417.511 215.276C417.511 213.064 418.785 211.356 420.969 211.356C423.167 211.356 424.343 212.994 424.343 215.108V215.556H418.799V215.612C418.799 217.194 419.695 218.188 421.039 218.188C422.187 218.188 422.803 217.586 422.901 217.012H424.203C423.951 218.3 422.789 219.196 421.011 219.196ZM420.969 212.378C419.793 212.378 418.911 213.218 418.813 214.66H423.041C422.999 213.19 422.201 212.378 420.969 212.378ZM429.493 219.672H430.795C430.893 220.246 431.425 220.848 432.671 220.848C434.169 220.848 434.855 220.008 434.855 218.524V217.236H434.785C434.407 218.174 433.665 218.762 432.419 218.762C430.431 218.762 429.269 217.138 429.269 215.038C429.269 212.98 430.389 211.356 432.419 211.356C433.735 211.356 434.519 211.972 434.869 212.952H434.925V211.552H436.143V218.454C436.143 220.666 434.883 221.898 432.671 221.898C430.725 221.898 429.661 220.89 429.493 219.672ZM430.557 214.87V215.248C430.557 216.774 431.495 217.67 432.713 217.67C433.917 217.67 434.855 216.746 434.855 215.248V214.87C434.855 213.4 433.917 212.448 432.713 212.448C431.495 212.448 430.557 213.33 430.557 214.87ZM441.697 219.196C439.401 219.196 438.197 217.474 438.197 215.276C438.197 213.064 439.471 211.356 441.655 211.356C443.853 211.356 445.029 212.994 445.029 215.108V215.556H439.485V215.612C439.485 217.194 440.381 218.188 441.725 218.188C442.873 218.188 443.489 217.586 443.587 217.012H444.889C444.637 218.3 443.475 219.196 441.697 219.196ZM441.655 212.378C440.479 212.378 439.597 213.218 439.499 214.66H443.727C443.685 213.19 442.887 212.378 441.655 212.378ZM448.354 214.618V219H447.066V211.552H448.27V212.924H448.34C448.69 211.888 449.558 211.356 450.664 211.356C452.176 211.356 453.366 212.378 453.366 214.268V219H452.078V214.394C452.078 213.106 451.252 212.476 450.286 212.476C449.278 212.476 448.354 213.162 448.354 214.618ZM458.855 219.196C456.559 219.196 455.355 217.474 455.355 215.276C455.355 213.064 456.629 211.356 458.813 211.356C461.011 211.356 462.187 212.994 462.187 215.108V215.556H456.643V215.612C456.643 217.194 457.539 218.188 458.883 218.188C460.031 218.188 460.647 217.586 460.745 217.012H462.047C461.795 218.3 460.633 219.196 458.855 219.196ZM458.813 212.378C457.637 212.378 456.755 213.218 456.657 214.66H460.885C460.843 213.19 460.045 212.378 458.813 212.378ZM464.225 219V211.552H465.443V212.868H465.513C465.709 212.182 466.297 211.51 467.543 211.51H468.481V212.714H467.305C465.905 212.714 465.513 213.554 465.513 214.632V219H464.225ZM469.729 213.442C469.841 212.224 470.877 211.356 472.697 211.356C474.349 211.356 475.525 212.14 475.525 213.862V217.404C475.525 217.852 475.707 217.964 476.057 217.964H476.505V219H475.679C474.769 219 474.433 218.552 474.447 217.796V217.642H474.363C474.055 218.594 473.145 219.196 471.941 219.196C470.513 219.196 469.463 218.384 469.463 216.998C469.463 215.64 470.471 214.94 471.997 214.702L473.089 214.52C473.831 214.394 474.209 214.142 474.209 213.554C474.209 212.952 473.817 212.35 472.669 212.35C471.633 212.35 471.073 212.756 471.003 213.442H469.729ZM474.251 215.99V214.912C474.111 215.108 473.775 215.318 473.285 215.402L472.221 215.584C471.297 215.738 470.723 216.144 470.723 216.872V216.956C470.723 217.74 471.311 218.188 472.179 218.188C473.397 218.188 474.251 217.306 474.251 215.99ZM477.125 211.552H478.777V209.592H480.065V211.552H482.431V212.63H480.065V217.18C480.065 217.698 480.275 217.922 480.793 217.922H482.445V219H480.555C479.323 219 478.777 218.426 478.777 217.278V212.63H477.125V211.552ZM485.456 210.152H485.386C484.882 210.152 484.504 209.774 484.504 209.298C484.504 208.808 484.882 208.43 485.386 208.43H485.456C485.96 208.43 486.338 208.808 486.338 209.298C486.338 209.774 485.96 210.152 485.456 210.152ZM483.622 212.616V211.552H486.072V219H484.784V212.616H483.622ZM491.627 219.196C489.331 219.196 488.113 217.474 488.113 215.276C488.113 213.064 489.359 211.356 491.627 211.356C493.881 211.356 495.141 213.078 495.141 215.276C495.141 217.474 493.923 219.196 491.627 219.196ZM493.839 215.556V215.01C493.839 213.414 492.901 212.462 491.627 212.462C490.353 212.462 489.401 213.442 489.401 215.01V215.556C489.401 217.11 490.353 218.104 491.627 218.104C492.901 218.104 493.839 217.166 493.839 215.556ZM498.489 214.618V219H497.201V211.552H498.405V212.924H498.475C498.825 211.888 499.693 211.356 500.799 211.356C502.311 211.356 503.501 212.378 503.501 214.268V219H502.213V214.394C502.213 213.106 501.387 212.476 500.421 212.476C499.413 212.476 498.489 213.162 498.489 214.618Z" fill="#0A0B0D"/>
<path d="M300 128H393C415.091 128 433 110.091 433 88V45" stroke="url(#paint0_linear_4141_46303)" stroke-width="2"/>
<ellipse cx="268" cy="123.417" rx="39.4167" ry="39.4167" fill="#CED2DB"/>
<path d="M242.917 153.824V134.167H293.083V153.824C286.268 159.452 277.529 162.833 268 162.833C258.471 162.833 249.732 159.452 242.917 153.824Z" fill="#0052FF"/>
<rect x="250.083" y="98.3333" width="35.8333" height="28.6667" fill="#0052FF"/>
<rect x="257.25" y="127" width="21.5" height="7.16667" fill="#0052FF"/>
<ellipse cx="260.833" cy="109.083" rx="3.58333" ry="3.58333" fill="white"/>
<ellipse cx="275.167" cy="109.083" rx="3.58333" ry="3.58333" fill="white"/>
<rect x="285.917" y="105.5" width="3.58333" height="14.3333" fill="#0A0B0D"/>
<rect x="246.5" y="105.5" width="3.58333" height="14.3333" fill="#0A0B0D"/>
<path fill-rule="evenodd" clip-rule="evenodd" d="M293.083 114.458H289.5V110.875H293.083V114.458Z" fill="#0A0B0D"/>
<path fill-rule="evenodd" clip-rule="evenodd" d="M242.917 110.875H246.5V114.458H242.917V110.875Z" fill="#0A0B0D"/>
<rect x="250.083" y="141.333" width="17.9167" height="10.75" fill="#FFD200"/>
<path fill-rule="evenodd" clip-rule="evenodd" d="M285.917 144.917H275.167V141.333H285.917V144.917Z" fill="#0A0B0D"/>
<path fill-rule="evenodd" clip-rule="evenodd" d="M285.917 152.083H275.167V148.5H285.917V152.083Z" fill="#0A0B0D"/>
<path d="M260.833 98.3333C260.833 96.3543 262.438 94.75 264.417 94.75H271.583C273.562 94.75 275.167 96.3543 275.167 98.3333V98.3333H260.833V98.3333Z" fill="#0052FF"/>
<rect x="347" y="22" width="153" height="48" rx="16" fill="white"/>
<rect x="347.5" y="22.5" width="152" height="47" rx="15.5" stroke="#5B616E" stroke-opacity="0.2"/>
<path d="M372 55C369.483 55 367.354 54.6125 365.613 53.8375C363.871 53.0625 363 52.1167 363 51V41C363 39.9 363.879 38.9583 365.638 38.175C367.396 37.3917 369.517 37 372 37C374.483 37 376.604 37.3917 378.363 38.175C380.121 38.9583 381 39.9 381 41V51C381 52.1167 380.129 53.0625 378.388 53.8375C376.646 54.6125 374.517 55 372 55ZM372 43.025C373.483 43.025 374.975 42.8125 376.475 42.3875C377.975 41.9625 378.817 41.5083 379 41.025C378.817 40.5417 377.979 40.0833 376.488 39.65C374.996 39.2167 373.5 39 372 39C370.483 39 368.996 39.2125 367.538 39.6375C366.079 40.0625 365.233 40.525 365 41.025C365.233 41.525 366.079 41.9833 367.538 42.4C368.996 42.8167 370.483 43.025 372 43.025ZM372 48C372.7 48 373.375 47.9667 374.025 47.9C374.675 47.8333 375.296 47.7375 375.888 47.6125C376.479 47.4875 377.038 47.3333 377.563 47.15C378.088 46.9667 378.567 46.7583 379 46.525V43.525C378.567 43.7583 378.088 43.9667 377.563 44.15C377.038 44.3333 376.479 44.4875 375.888 44.6125C375.296 44.7375 374.675 44.8333 374.025 44.9C373.375 44.9667 372.7 45 372 45C371.3 45 370.617 44.9667 369.95 44.9C369.283 44.8333 368.654 44.7375 368.063 44.6125C367.471 44.4875 366.917 44.3333 366.4 44.15C365.883 43.9667 365.417 43.7583 365 43.525V46.525C365.417 46.7583 365.883 46.9667 366.4 47.15C366.917 47.3333 367.471 47.4875 368.063 47.6125C368.654 47.7375 369.283 47.8333 369.95 47.9C370.617 47.9667 371.3 48 372 48ZM372 53C372.767 53 373.546 52.9417 374.338 52.825C375.129 52.7083 375.858 52.5542 376.525 52.3625C377.192 52.1708 377.75 51.9542 378.2 51.7125C378.65 51.4708 378.917 51.225 379 50.975V48.525C378.567 48.7583 378.088 48.9667 377.563 49.15C377.038 49.3333 376.479 49.4875 375.888 49.6125C375.296 49.7375 374.675 49.8333 374.025 49.9C373.375 49.9667 372.7 50 372 50C371.3 50 370.617 49.9667 369.95 49.9C369.283 49.8333 368.654 49.7375 368.063 49.6125C367.471 49.4875 366.917 49.3333 366.4 49.15C365.883 48.9667 365.417 48.7583 365 48.525V51C365.083 51.25 365.346 51.4917 365.788 51.725C366.229 51.9583 366.783 52.1708 367.45 52.3625C368.117 52.5542 368.85 52.7083 369.65 52.825C370.45 52.9417 371.233 53 372 53Z" fill="#098551"/>
<path d="M395.956 41.144C398.938 41.144 400.464 43.398 400.464 46.072C400.464 48.76 398.952 51 395.956 51H392.456V41.144H395.956ZM395.97 42.306H393.8V49.838H395.97C397.678 49.838 399.092 48.606 399.092 46.38V45.764C399.092 43.538 397.678 42.306 395.97 42.306ZM402.358 45.442C402.47 44.224 403.506 43.356 405.326 43.356C406.978 43.356 408.154 44.14 408.154 45.862V49.404C408.154 49.852 408.336 49.964 408.686 49.964H409.134V51H408.308C407.398 51 407.062 50.552 407.076 49.796V49.642H406.992C406.684 50.594 405.774 51.196 404.57 51.196C403.142 51.196 402.092 50.384 402.092 48.998C402.092 47.64 403.1 46.94 404.626 46.702L405.718 46.52C406.46 46.394 406.838 46.142 406.838 45.554C406.838 44.952 406.446 44.35 405.298 44.35C404.262 44.35 403.702 44.756 403.632 45.442H402.358ZM406.88 47.99V46.912C406.74 47.108 406.404 47.318 405.914 47.402L404.85 47.584C403.926 47.738 403.352 48.144 403.352 48.872V48.956C403.352 49.74 403.94 50.188 404.808 50.188C406.026 50.188 406.88 49.306 406.88 47.99ZM409.754 43.552H411.406V41.592H412.694V43.552H415.06V44.63H412.694V49.18C412.694 49.698 412.904 49.922 413.422 49.922H415.074V51H413.184C411.952 51 411.406 50.426 411.406 49.278V44.63H409.754V43.552ZM416.618 45.442C416.73 44.224 417.766 43.356 419.586 43.356C421.238 43.356 422.414 44.14 422.414 45.862V49.404C422.414 49.852 422.596 49.964 422.946 49.964H423.394V51H422.568C421.658 51 421.322 50.552 421.336 49.796V49.642H421.252C420.944 50.594 420.034 51.196 418.83 51.196C417.402 51.196 416.352 50.384 416.352 48.998C416.352 47.64 417.36 46.94 418.886 46.702L419.978 46.52C420.72 46.394 421.098 46.142 421.098 45.554C421.098 44.952 420.706 44.35 419.558 44.35C418.522 44.35 417.962 44.756 417.892 45.442H416.618ZM421.14 47.99V46.912C421 47.108 420.664 47.318 420.174 47.402L419.11 47.584C418.186 47.738 417.612 48.144 417.612 48.872V48.956C417.612 49.74 418.2 50.188 419.068 50.188C420.286 50.188 421.14 49.306 421.14 47.99ZM428.116 45.442C428.228 44.224 429.264 43.356 431.084 43.356C432.736 43.356 433.912 44.14 433.912 45.862V49.404C433.912 49.852 434.094 49.964 434.444 49.964H434.892V51H434.066C433.156 51 432.82 50.552 432.834 49.796V49.642H432.75C432.442 50.594 431.532 51.196 430.328 51.196C428.9 51.196 427.85 50.384 427.85 48.998C427.85 47.64 428.858 46.94 430.384 46.702L431.476 46.52C432.218 46.394 432.596 46.142 432.596 45.554C432.596 44.952 432.204 44.35 431.056 44.35C430.02 44.35 429.46 44.756 429.39 45.442H428.116ZM432.638 47.99V46.912C432.498 47.108 432.162 47.318 431.672 47.402L430.608 47.584C429.684 47.738 429.11 48.144 429.11 48.872V48.956C429.11 49.74 429.698 50.188 430.566 50.188C431.784 50.188 432.638 49.306 432.638 47.99ZM437.763 46.618V51H436.475V43.552H437.679V44.924H437.749C438.099 43.888 438.967 43.356 440.073 43.356C441.585 43.356 442.775 44.378 442.775 46.268V51H441.487V46.394C441.487 45.106 440.661 44.476 439.695 44.476C438.687 44.476 437.763 45.162 437.763 46.618ZM444.973 45.442C445.085 44.224 446.121 43.356 447.941 43.356C449.593 43.356 450.769 44.14 450.769 45.862V49.404C450.769 49.852 450.951 49.964 451.301 49.964H451.749V51H450.923C450.013 51 449.677 50.552 449.691 49.796V49.642H449.607C449.299 50.594 448.389 51.196 447.185 51.196C445.757 51.196 444.707 50.384 444.707 48.998C444.707 47.64 445.715 46.94 447.241 46.702L448.333 46.52C449.075 46.394 449.453 46.142 449.453 45.554C449.453 44.952 449.061 44.35 447.913 44.35C446.877 44.35 446.317 44.756 446.247 45.442H444.973ZM449.495 47.99V46.912C449.355 47.108 449.019 47.318 448.529 47.402L447.465 47.584C446.541 47.738 445.967 48.144 445.967 48.872V48.956C445.967 49.74 446.555 50.188 447.423 50.188C448.641 50.188 449.495 49.306 449.495 47.99ZM453.303 49.278V40.5H454.591V49.11C454.591 49.67 454.829 49.908 455.389 49.908H456.663V51H455.081C453.863 51 453.303 50.426 453.303 49.278ZM461.167 51.812C460.663 53.156 460.061 53.688 458.619 53.688H457.373V52.596H458.577C459.347 52.596 459.585 52.428 459.907 51.63L460.201 50.86L457.331 43.552H458.745L460.859 49.446H460.929L462.987 43.552H464.303L461.167 51.812ZM465.282 48.984H466.612C466.612 49.838 467.396 50.216 468.446 50.216C469.468 50.216 470.154 49.754 470.154 48.998C470.154 48.284 469.608 47.962 468.726 47.836L467.62 47.682C466.36 47.5 465.506 46.856 465.506 45.596C465.506 44.224 466.71 43.342 468.404 43.342C470.238 43.342 471.274 44.294 471.288 45.442H469.986C469.972 44.77 469.384 44.336 468.376 44.336C467.396 44.336 466.794 44.812 466.794 45.498C466.794 46.142 467.214 46.478 468.04 46.604L469.146 46.758C470.574 46.954 471.456 47.64 471.456 48.886C471.456 50.342 470.196 51.21 468.404 51.21C466.514 51.21 465.296 50.328 465.282 48.984ZM474.522 42.152H474.452C473.948 42.152 473.57 41.774 473.57 41.298C473.57 40.808 473.948 40.43 474.452 40.43H474.522C475.026 40.43 475.404 40.808 475.404 41.298C475.404 41.774 475.026 42.152 474.522 42.152ZM472.688 44.616V43.552H475.138V51H473.85V44.616H472.688ZM477.053 48.984H478.383C478.383 49.838 479.167 50.216 480.217 50.216C481.239 50.216 481.925 49.754 481.925 48.998C481.925 48.284 481.379 47.962 480.497 47.836L479.391 47.682C478.131 47.5 477.277 46.856 477.277 45.596C477.277 44.224 478.481 43.342 480.175 43.342C482.009 43.342 483.045 44.294 483.059 45.442H481.757C481.743 44.77 481.155 44.336 480.147 44.336C479.167 44.336 478.565 44.812 478.565 45.498C478.565 46.142 478.985 46.478 479.811 46.604L480.917 46.758C482.345 46.954 483.227 47.64 483.227 48.886C483.227 50.342 481.967 51.21 480.175 51.21C478.285 51.21 477.067 50.328 477.053 48.984Z" fill="#0A0B0D"/>
<rect x="463" y="4" width="53" height="28" rx="14" fill="#FFF2B2"/>
<rect x="463" y="4" width="53" height="28" rx="14" stroke="#FFDD39" stroke-width="3"/>
<path d="M474.542 24.806V22.944C472.638 22.72 471.462 21.572 471.434 19.99H473.24C473.268 21.04 474.024 21.6 475.256 21.6C476.474 21.6 477.132 20.998 477.132 20.172C477.132 19.374 476.6 19.15 475.55 18.954L474.472 18.758C472.806 18.464 471.644 17.708 471.644 16C471.644 14.6 472.708 13.41 474.542 13.186V11.324H475.97V13.2C477.804 13.452 478.77 14.614 478.812 15.944H476.992C476.978 15.132 476.418 14.53 475.2 14.53C474.024 14.53 473.464 15.16 473.464 15.86C473.464 16.686 474.038 16.938 474.99 17.106L476.054 17.274C477.692 17.54 478.938 18.226 478.938 20.032C478.938 21.6 477.762 22.706 475.97 22.944V24.806H474.542ZM484.038 12.934C486.32 12.934 487.72 14.334 487.72 16.616V19.5C487.72 21.81 486.306 23.196 484.038 23.196C481.784 23.196 480.37 21.81 480.37 19.5V16.616C480.37 14.334 481.77 12.934 484.038 12.934ZM484.038 21.572C485.242 21.572 485.872 20.746 485.872 19.486V16.63C485.872 15.398 485.242 14.558 484.038 14.558C482.848 14.558 482.218 15.398 482.218 16.63V19.486C482.218 20.746 482.848 21.572 484.038 21.572ZM490.46 23.14C489.774 23.14 489.214 22.58 489.214 21.88C489.214 21.18 489.774 20.634 490.46 20.634C491.146 20.634 491.706 21.18 491.706 21.88C491.706 22.58 491.146 23.14 490.46 23.14ZM496.876 12.934C499.158 12.934 500.558 14.334 500.558 16.616V19.5C500.558 21.81 499.144 23.196 496.876 23.196C494.622 23.196 493.208 21.81 493.208 19.5V16.616C493.208 14.334 494.608 12.934 496.876 12.934ZM496.876 21.572C498.08 21.572 498.71 20.746 498.71 19.486V16.63C498.71 15.398 498.08 14.558 496.876 14.558C495.686 14.558 495.056 15.398 495.056 16.63V19.486C495.056 20.746 495.686 21.572 496.876 21.572ZM504.152 23V16.406H501.73V14.866H504.152V13.144H506.014V23H504.152Z" fill="#0A0B0D"/>
<defs>
<linearGradient id="paint0_linear_4141_46303" x1="433" y1="45" x2="328.887" y2="155.273" gradientUnits="userSpaceOnUse">
<stop stop-color="#02C272"/>
<stop offset="1" stop-color="#015C36"/>
</linearGradient>
</defs>
</svg>
