<svg width="546" height="254" viewBox="0 0 546 254" fill="none" xmlns="http://www.w3.org/2000/svg">
<path d="M97 126.5L254.5 126.5H420" stroke="#CED2DB" stroke-width="2"/>
<path d="M97 126.5L213.492 126.5C238.37 126.5 260.854 141.326 270.654 164.192V164.192C286.334 200.778 322.308 224.5 362.113 224.5H420" stroke="#CED2DB" stroke-width="2"/>
<path d="M97 126.5L214.374 126.5C238.758 126.5 260.837 112.09 270.654 89.7692V89.7692C286.36 54.0562 321.687 31 360.702 31H420" stroke="url(#paint0_linear_4957_12690)" stroke-width="2"/>
<rect x="267" y="54" width="32" height="32" rx="16" fill="#FFF2B2"/>
<rect x="267" y="54" width="32" height="32" rx="16" stroke="#FFDD39" stroke-width="3"/>
<path d="M282.218 75.1564V77.0361H283.868V75.1549C284.717 75.0332 285.439 74.7155 285.965 74.2258C286.551 73.6808 286.878 72.9388 286.878 72.0741C286.878 71.1694 286.563 70.498 286.003 70.0206C285.457 69.5554 284.707 69.2977 283.874 69.1469L282.725 68.9508C282.207 68.854 281.834 68.734 281.592 68.5502C281.372 68.3842 281.236 68.1485 281.236 67.7341C281.236 67.3637 281.382 67.0354 281.664 66.7953C281.95 66.5527 282.397 66.3821 283.022 66.3821C283.659 66.3821 284.098 66.5443 284.379 66.782C284.657 67.0169 284.813 67.3518 284.837 67.7655L284.853 68.0481H286.737L286.724 67.7352C286.693 67.016 286.421 66.3272 285.892 65.7938C285.411 65.3096 284.733 64.9683 283.868 64.8371V62.9541H282.218V64.8381C280.437 65.1165 279.348 66.3209 279.348 67.8041C279.348 68.667 279.653 69.3317 280.194 69.8147C280.724 70.2874 281.456 70.5648 282.281 70.7169L282.282 70.7171L283.441 70.9407L283.445 70.9413C284.016 71.0446 284.404 71.1783 284.647 71.3652C284.867 71.5344 284.99 71.7637 284.99 72.1441C284.99 72.5803 284.816 72.9343 284.502 73.1857C284.182 73.4421 283.695 73.6081 283.05 73.6081C282.387 73.6081 281.886 73.4503 281.548 73.1868C281.217 72.9289 281.014 72.5471 280.984 72.0285L280.967 71.7461H279.099L279.11 72.057C279.141 72.9006 279.465 73.6455 280.055 74.2001C280.589 74.7022 281.324 75.0336 282.218 75.1564Z" fill="#0A0B0D"/>
<rect x="396" y="101" width="98" height="48" rx="16" fill="white"/>
<rect x="396.5" y="101.5" width="97" height="47" rx="15.5" stroke="#5B616E" stroke-opacity="0.2"/>
<path d="M421 134C418.483 134 416.354 133.613 414.613 132.838C412.871 132.063 412 131.117 412 130V120C412 118.9 412.879 117.958 414.638 117.175C416.396 116.392 418.517 116 421 116C423.483 116 425.604 116.392 427.363 117.175C429.121 117.958 430 118.9 430 120V130C430 131.117 429.129 132.063 427.388 132.838C425.646 133.613 423.517 134 421 134ZM421 122.025C422.483 122.025 423.975 121.813 425.475 121.388C426.975 120.963 427.817 120.508 428 120.025C427.817 119.542 426.979 119.083 425.488 118.65C423.996 118.217 422.5 118 421 118C419.483 118 417.996 118.213 416.538 118.638C415.079 119.063 414.233 119.525 414 120.025C414.233 120.525 415.079 120.983 416.538 121.4C417.996 121.817 419.483 122.025 421 122.025ZM421 127C421.7 127 422.375 126.967 423.025 126.9C423.675 126.833 424.296 126.738 424.888 126.613C425.479 126.488 426.038 126.333 426.563 126.15C427.088 125.967 427.567 125.758 428 125.525V122.525C427.567 122.758 427.088 122.967 426.563 123.15C426.038 123.333 425.479 123.488 424.888 123.613C424.296 123.738 423.675 123.833 423.025 123.9C422.375 123.967 421.7 124 421 124C420.3 124 419.617 123.967 418.95 123.9C418.283 123.833 417.654 123.738 417.063 123.613C416.471 123.488 415.917 123.333 415.4 123.15C414.883 122.967 414.417 122.758 414 122.525V125.525C414.417 125.758 414.883 125.967 415.4 126.15C415.917 126.333 416.471 126.488 417.063 126.613C417.654 126.738 418.283 126.833 418.95 126.9C419.617 126.967 420.3 127 421 127ZM421 132C421.767 132 422.546 131.942 423.338 131.825C424.129 131.708 424.858 131.554 425.525 131.363C426.192 131.171 426.75 130.954 427.2 130.713C427.65 130.471 427.917 130.225 428 129.975V127.525C427.567 127.758 427.088 127.967 426.563 128.15C426.038 128.333 425.479 128.488 424.888 128.613C424.296 128.738 423.675 128.833 423.025 128.9C422.375 128.967 421.7 129 421 129C420.3 129 419.617 128.967 418.95 128.9C418.283 128.833 417.654 128.738 417.063 128.613C416.471 128.488 415.917 128.333 415.4 128.15C414.883 127.967 414.417 127.758 414 127.525V130C414.083 130.25 414.346 130.492 414.788 130.725C415.229 130.958 415.783 131.171 416.45 131.363C417.117 131.554 417.85 131.708 418.65 131.825C419.45 131.942 420.233 132 421 132Z" fill="#098551"/>
<path d="M445.664 119.736C449.072 119.736 450.816 122.312 450.816 125.368C450.816 128.44 449.088 131 445.664 131H441.664V119.736H445.664ZM445.68 121.064H443.2V129.672H445.68C447.632 129.672 449.248 128.264 449.248 125.72V125.016C449.248 122.472 447.632 121.064 445.68 121.064ZM452.981 124.648C453.109 123.256 454.293 122.264 456.373 122.264C458.261 122.264 459.605 123.16 459.605 125.128V129.176C459.605 129.688 459.812 129.816 460.213 129.816H460.725V131H459.781C458.741 131 458.357 130.488 458.373 129.624V129.448H458.277C457.925 130.536 456.885 131.224 455.509 131.224C453.877 131.224 452.677 130.296 452.677 128.712C452.677 127.16 453.829 126.36 455.573 126.088L456.821 125.88C457.669 125.736 458.101 125.448 458.101 124.776C458.101 124.088 457.653 123.4 456.341 123.4C455.157 123.4 454.517 123.864 454.437 124.648H452.981ZM458.149 127.56V126.328C457.989 126.552 457.605 126.792 457.045 126.888L455.829 127.096C454.773 127.272 454.117 127.736 454.117 128.568V128.664C454.117 129.56 454.789 130.072 455.781 130.072C457.173 130.072 458.149 129.064 458.149 127.56ZM461.434 122.488H463.322V120.248H464.794V122.488H467.498V123.72H464.794V128.92C464.794 129.512 465.034 129.768 465.626 129.768H467.514V131H465.354C463.946 131 463.322 130.344 463.322 129.032V123.72H461.434V122.488ZM469.277 124.648C469.405 123.256 470.589 122.264 472.669 122.264C474.557 122.264 475.901 123.16 475.901 125.128V129.176C475.901 129.688 476.109 129.816 476.509 129.816H477.021V131H476.077C475.037 131 474.653 130.488 474.669 129.624V129.448H474.573C474.221 130.536 473.181 131.224 471.805 131.224C470.173 131.224 468.973 130.296 468.973 128.712C468.973 127.16 470.125 126.36 471.869 126.088L473.117 125.88C473.965 125.736 474.397 125.448 474.397 124.776C474.397 124.088 473.949 123.4 472.637 123.4C471.453 123.4 470.813 123.864 470.733 124.648H469.277ZM474.445 127.56V126.328C474.285 126.552 473.901 126.792 473.341 126.888L472.125 127.096C471.069 127.272 470.413 127.736 470.413 128.568V128.664C470.413 129.56 471.085 130.072 472.077 130.072C473.469 130.072 474.445 129.064 474.445 127.56Z" fill="#0A0B0D"/>
<rect x="396" y="199" width="134" height="48" rx="16" fill="white"/>
<rect x="396.5" y="199.5" width="133" height="47" rx="15.5" stroke="#5B616E" stroke-opacity="0.2"/>
<path d="M412 233V226H415V222H420V220H417V213H425V220H422V222H427V226H430V233H422V226H425V224H417V226H420V233H412ZM419 218H423V215H419V218ZM414 231H418V228H414V231ZM424 231H428V228H424V231Z" fill="#ED702F"/>
<path d="M446.096 227.896C447.808 227.896 448.768 226.904 449.04 225.672H450.64C450.208 227.8 448.544 229.224 446.128 229.224C442.736 229.224 440.992 226.568 440.992 223.368C440.992 220.184 442.736 217.496 446.128 217.496C448.544 217.496 450.176 218.888 450.608 220.92H448.976C448.688 219.672 447.728 218.824 446.096 218.824C444.144 218.824 442.544 220.328 442.544 223.016V223.704C442.544 226.392 444.144 227.896 446.096 227.896ZM456.428 229.224C453.804 229.224 452.412 227.256 452.412 224.744C452.412 222.216 453.836 220.264 456.428 220.264C459.004 220.264 460.444 222.232 460.444 224.744C460.444 227.256 459.052 229.224 456.428 229.224ZM458.956 225.064V224.44C458.956 222.616 457.884 221.528 456.428 221.528C454.972 221.528 453.884 222.648 453.884 224.44V225.064C453.884 226.84 454.972 227.976 456.428 227.976C457.884 227.976 458.956 226.904 458.956 225.064ZM462.799 229V220.488H464.175V221.912H464.255C464.607 220.84 465.487 220.264 466.687 220.264C467.951 220.264 468.911 220.888 469.311 222.056H469.375C469.791 220.872 470.783 220.264 472.015 220.264C473.647 220.264 474.927 221.368 474.927 223.4V229H473.455V223.544C473.455 222.2 472.591 221.544 471.599 221.544C470.543 221.544 469.599 222.264 469.599 223.752V229H468.127V223.544C468.127 222.2 467.263 221.544 466.255 221.544C465.215 221.544 464.271 222.28 464.271 223.784V229H462.799ZM477.674 220.488H479.05V222.232H479.13C479.546 221.048 480.474 220.264 481.962 220.264C484.346 220.264 485.626 222.232 485.626 224.744C485.626 227.272 484.314 229.224 481.962 229.224C480.554 229.224 479.674 228.504 479.21 227.384H479.146V232.072H477.674V220.488ZM484.138 224.44C484.138 222.584 483.082 221.512 481.642 221.512C480.202 221.512 479.146 222.648 479.146 224.44V225.048C479.146 226.856 480.202 227.96 481.642 227.96C483.082 227.96 484.138 226.888 484.138 225.048V224.44ZM493.635 225.496V220.488H495.107V229H493.731V227.432H493.651C493.251 228.616 492.259 229.224 490.995 229.224C489.267 229.224 487.907 228.056 487.907 225.896V220.488H489.379V225.752C489.379 227.224 490.323 227.944 491.427 227.944C492.579 227.944 493.635 227.16 493.635 225.496ZM496.996 220.488H498.884V218.248H500.356V220.488H503.06V221.72H500.356V226.92C500.356 227.512 500.596 227.768 501.188 227.768H503.076V229H500.916C499.508 229 498.884 228.344 498.884 227.032V221.72H496.996V220.488ZM508.537 229.224C505.913 229.224 504.537 227.256 504.537 224.744C504.537 222.216 505.993 220.264 508.489 220.264C511.001 220.264 512.345 222.136 512.345 224.552V225.064H506.009V225.128C506.009 226.936 507.033 228.072 508.569 228.072C509.881 228.072 510.585 227.384 510.697 226.728H512.185C511.897 228.2 510.569 229.224 508.537 229.224ZM508.489 221.432C507.145 221.432 506.137 222.392 506.025 224.04H510.857C510.809 222.36 509.897 221.432 508.489 221.432Z" fill="#0A0B0D"/>
<rect x="396" y="6" width="114" height="48" rx="16" fill="white"/>
<rect x="396.5" y="6.5" width="113" height="47" rx="15.5" stroke="#5B616E" stroke-opacity="0.2"/>
<path d="M430.667 30.6538L431.816 31.3759C432.525 31.8215 432.989 32.6049 432.989 33.4951C432.989 34.8758 431.869 35.9951 430.489 35.9951H417.489C416.108 35.9951 414.989 34.8758 414.989 33.4951C414.989 32.3939 415.702 31.4541 416.697 31.1224L418.392 30.5576L418.021 28.81C418 28.7102 417.989 28.6051 417.989 28.4951C417.989 27.6667 418.66 26.9951 419.489 26.9951C419.699 26.9951 419.894 27.0371 420.07 27.1111L421.701 27.7975L422.581 26.2622C423.359 24.9033 424.819 23.9951 426.489 23.9951C428.974 23.9951 430.989 26.0098 430.989 28.4951C430.989 28.7783 430.963 29.0537 430.914 29.3196L430.667 30.6538ZM416.065 29.225C414.277 29.8207 412.989 31.5074 412.989 33.4951C412.989 35.9804 415.003 37.9951 417.489 37.9951H430.489C432.974 37.9951 434.989 35.9804 434.989 33.4951C434.989 31.8887 434.147 30.4789 432.881 29.6827C432.952 29.2976 432.989 28.9007 432.989 28.4951C432.989 24.9053 430.079 21.9951 426.489 21.9951C424.074 21.9951 421.966 23.3124 420.845 25.2677C420.428 25.0922 419.97 24.9951 419.489 24.9951C417.556 24.9951 415.989 26.5621 415.989 28.4951C415.989 28.7454 416.015 28.9896 416.065 29.225Z" fill="#0052FF"/>
<path d="M452.096 34.896C453.808 34.896 454.768 33.904 455.04 32.672H456.64C456.208 34.8 454.544 36.224 452.128 36.224C448.736 36.224 446.992 33.568 446.992 30.368C446.992 27.184 448.736 24.496 452.128 24.496C454.544 24.496 456.176 25.888 456.608 27.92H454.976C454.688 26.672 453.728 25.824 452.096 25.824C450.144 25.824 448.544 27.328 448.544 30.016V30.704C448.544 33.392 450.144 34.896 452.096 34.896ZM458.75 34.032V24H460.222V33.84C460.222 34.48 460.494 34.752 461.134 34.752H462.59V36H460.782C459.39 36 458.75 35.344 458.75 34.032ZM467.882 36.224C465.258 36.224 463.866 34.256 463.866 31.744C463.866 29.216 465.289 27.264 467.882 27.264C470.458 27.264 471.898 29.232 471.898 31.744C471.898 34.256 470.506 36.224 467.882 36.224ZM470.41 32.064V31.44C470.41 29.616 469.338 28.528 467.882 28.528C466.426 28.528 465.338 29.648 465.338 31.44V32.064C465.338 33.84 466.426 34.976 467.882 34.976C469.338 34.976 470.41 33.904 470.41 32.064ZM479.932 32.496V27.488H481.404V36H480.028V34.432H479.948C479.548 35.616 478.556 36.224 477.292 36.224C475.564 36.224 474.204 35.056 474.204 32.896V27.488H475.676V32.752C475.676 34.224 476.62 34.944 477.724 34.944C478.876 34.944 479.932 34.16 479.932 32.496ZM491.565 36H490.173V34.256H490.093C489.677 35.44 488.749 36.224 487.261 36.224C484.893 36.224 483.613 34.272 483.613 31.744C483.613 29.216 484.925 27.264 487.261 27.264C488.669 27.264 489.549 27.984 490.013 29.12H490.093V24H491.565V36ZM485.085 32.064C485.085 33.904 486.157 34.976 487.581 34.976C489.021 34.976 490.093 33.856 490.093 32.064V31.44C490.093 29.632 489.021 28.528 487.581 28.528C486.157 28.528 485.085 29.6 485.085 31.44V32.064Z" fill="#0A0B0D"/>
<ellipse cx="59.9999" cy="123.417" rx="39.4167" ry="39.4167" fill="#CED2DB"/>
<path d="M34.9167 153.824V134.167H85.0834V153.824C78.2683 159.452 69.5291 162.833 60.0001 162.833C50.4711 162.833 41.7318 159.452 34.9167 153.824Z" fill="#0052FF"/>
<rect x="42.0833" y="98.3333" width="35.8333" height="28.6667" fill="#0052FF"/>
<rect x="49.25" y="127" width="21.5" height="7.16667" fill="#0052FF"/>
<ellipse cx="52.8333" cy="109.083" rx="3.58333" ry="3.58333" fill="white"/>
<ellipse cx="67.1666" cy="109.083" rx="3.58333" ry="3.58333" fill="white"/>
<rect x="77.9167" y="105.5" width="3.58333" height="14.3333" fill="#0A0B0D"/>
<rect x="38.5" y="105.5" width="3.58333" height="14.3333" fill="#0A0B0D"/>
<path fill-rule="evenodd" clip-rule="evenodd" d="M85.0833 114.458H81.5V110.875H85.0833V114.458Z" fill="#0A0B0D"/>
<path fill-rule="evenodd" clip-rule="evenodd" d="M34.9167 110.875H38.5001V114.458H34.9167V110.875Z" fill="#0A0B0D"/>
<rect x="42.0833" y="141.333" width="17.9167" height="10.75" fill="#FFD200"/>
<path fill-rule="evenodd" clip-rule="evenodd" d="M77.9167 144.917H67.1667V141.333H77.9167V144.917Z" fill="#0A0B0D"/>
<path fill-rule="evenodd" clip-rule="evenodd" d="M77.9167 152.083H67.1667V148.5H77.9167V152.083Z" fill="#0A0B0D"/>
<path d="M52.8333 98.3333C52.8333 96.3543 54.4376 94.75 56.4166 94.75H63.5833C65.5623 94.75 67.1666 96.3543 67.1666 98.3333V98.3333H52.8333V98.3333Z" fill="#0052FF"/>
<defs>
<linearGradient id="paint0_linear_4957_12690" x1="97" y1="78.75" x2="420" y2="78.75" gradientUnits="userSpaceOnUse">
<stop stop-color="#586095"/>
<stop offset="1" stop-color="#578BFA"/>
</linearGradient>
</defs>
</svg>
